<svg xmlns="http://www.w3.org/2000/svg" version="1.1" xmlns:xlink="http://www.w3.org/1999/xlink" xmlns:svgjs="http://svgjs.dev/svgjs" width="100%" height="100%" viewBox="0 0 1000 600"><rect width="1000" height="600" x="0" y="0" fill="#ee4e34"/><g><rect width="333.3333333333333" height="333.3333333333333" rx="13.333333333333334" ry="13.333333333333334" y="221.5594500731155" fill="#fcedda" transform="matrix(0.627078076425753,0,0,0.6270780764257528,-0.7157154098438911,56.551915997430555)" x="202.3978271484375"/><path d="M249.00030603777302 463.22611149268033L200.47861750628456 463.22611149268033L200.47861750628456 454.41459619712435L203.19209738206834 454.41459619712435Q210.13627168783756 454.41459619712435 215.27145940975097 451.99288835099475Q220.43582433462979 449.57118050486514 220.43582433462979 440.322007164828L220.43582433462979 440.322007164828L220.43582433462979 336.33445579608184Q220.43582433462979 327.08528245604464 215.27145940975097 324.5760430010187Q210.13627168783756 322.06680354599285 203.19209738206834 322.06680354599285L203.19209738206834 322.06680354599285L200.47861750628456 322.06680354599285L200.47861750628456 313.22611104747153L248.35840757253385 313.22611104747153L291.8616171939706 433.40701006202414L334.9271687709261 313.22611104747153L381.5523391096624 313.22611104747153L381.5523391096624 322.06680354599285L378.8096820309132 322.06680354599285Q371.69044450735146 322.06680354599285 366.6427883943344 324.69275181288043Q361.5951322813172 327.31870007976795 361.5951322813172 337.1805946820789L361.5951322813172 337.1805946820789L361.5951322813172 439.271627858073Q361.5951322813172 449.1626996633493 366.6427883943344 451.7886479302369Q371.69044450735146 454.41459619712435 378.8096820309132 454.41459619712435L378.8096820309132 454.41459619712435L381.5523391096624 454.41459619712435L381.5523391096624 463.22611149268033L325.67799543088887 463.22611149268033L325.67799543088887 454.41459619712435L326.2907166931626 454.41459619712435Q333.030650578174 454.41459619712435 337.0279273844361 452.080419959891Q340.9960269877328 449.7754209256231 341.43368503221404 441.1681460508251L341.43368503221404 441.1681460508251L341.43368503221404 328.98180064879676L293.3204773422415 463.22611149268033L281.97054538869423 463.22611149268033L233.24461643644784 329.419458693278L233.24461643644784 439.271627858073Q233.24461643644784 449.1626996633493 237.24189324270998 451.7886479302369Q241.20999284600668 454.41459619712435 248.35840757253385 454.41459619712435L248.35840757253385 454.41459619712435L249.00030603777302 454.41459619712435L249.00030603777302 463.22611149268033ZM440.78206112945895 463.22611149268033L389.5468927221867 463.22611149268033L389.5468927221867 454.41459619712435L393.51499232548343 454.41459619712435Q399.6130277452555 454.41459619712435 402.6766340566244 451.26345827685935Q405.7110631650277 448.11232035659435 409.5040995505319 438.01700813056004L409.5040995505319 438.01700813056004L456.12926988926824 313.22611104747153L472.5268579558326 313.22611104747153L519.998167180566 443.2689046643351Q522.303166214834 449.7754209256231 525.5710129469608 452.080419959891Q528.809682476122 454.41459619712435 534.9077178958942 454.41459619712435L534.9077178958942 454.41459619712435L537.6503749746433 454.41459619712435L537.6503749746433 463.22611149268033L479.8795131031177 463.22611149268033L479.8795131031177 454.41459619712435L484.69375159241156 454.41459619712435Q490.99602743294156 454.41459619712435 494.1471653532067 451.99288835099475Q497.2983032734717 449.57118050486514 497.2983032734717 444.3192839710901L497.2983032734717 444.3192839710901Q497.2983032734717 442.62700619909594 496.88982243195585 440.7596652093093Q496.45216438747457 438.86314701655715 495.6352027044429 436.5581479822892L495.6352027044429 436.5581479822892L487.23216825040276 413.01214518919767L431.970545833903 413.01214518919767L423.97599222137876 435.07011063105296Q423.1590305383471 437.6085272890442 422.6338408849696 440.0010579322084Q422.10865123159203 442.42276577833803 422.10865123159203 444.1150435503322L422.10865123159203 444.1150435503322Q422.10865123159203 449.3669400841073 425.55156118151126 451.87617953913315Q429.02364833439583 454.41459619712435 435.9678226401652 454.41459619712435L435.9678226401652 454.41459619712435L440.78206112945895 454.41459619712435L440.78206112945895 463.22611149268033ZM450.23547489025407 363.84855819247L435.9678226401652 402.50835212164753L483.4391318648986 402.50835212164753L470.4260993423226 365.74507638522215Q467.04154379833426 356.49590304518495 464.3280639225504 348.32628621486816Q461.58540684380125 340.12749218158604 459.9223062747725 332.57059661354305L459.9223062747725 332.57059661354305Q458.43426892353625 340.12749218158604 456.12926988926824 347.04248928438983Q453.82427085500035 353.9866635901591 450.23547489025407 363.84855819247L450.23547489025407 363.84855819247Z " fill="#ee4e34" transform="matrix(0.627078076425753,0,0,0.6270780764257528,-0.7157154098438911,56.551915997430555)"/><path d="M653.7103236412147 427.22611340003L619.0644939790857 427.22611340003L619.0644939790857 420.9344474000522L621.0019937737807 420.9344474000522Q625.9603265817102 420.9344474000522 629.626992859843 419.20528091661464Q633.3144924691014 417.47611443317703 633.3144924691014 410.871948466313L633.3144924691014 410.871948466313L633.3144924691014 336.6219563341253Q633.3144924691014 330.01779036726117 629.626992859843 328.22612389044633Q625.9603265817102 326.4344574136315 621.0019937737807 326.4344574136315L621.0019937737807 326.4344574136315L619.0644939790857 326.4344574136315L619.0644939790857 320.121958082528L653.2519903564481 320.121958082528L684.3144870649476 405.93444898950924L715.0644838065607 320.121958082528L748.3561469455158 320.121958082528L748.3561469455158 326.4344574136315L746.3978138196949 326.4344574136315Q741.3144810250109 326.4344574136315 737.7103147402554 328.30945721494936Q734.1061484554999 330.18445701626723 734.1061484554999 337.22612293677213L734.1061484554999 337.22612293677213L734.1061484554999 410.1219485457858Q734.1061484554999 417.18444779741645 737.7103147402554 419.0594475987344Q741.3144810250109 420.9344474000522 746.3978138196949 420.9344474000522L746.3978138196949 420.9344474000522L748.3561469455158 420.9344474000522L748.3561469455158 427.22611340003L708.4603178396966 427.22611340003L708.4603178396966 420.9344474000522L708.8978177933375 420.9344474000522Q713.7103172833866 420.9344474000522 716.5644836476149 419.2677809099919Q719.3978166807175 417.62194775105735 719.7103166476038 411.47611506895987L719.7103166476038 411.47611506895987L719.7103166476038 331.37195689043523L685.3561536212353 427.22611340003L677.2519878133169 427.22611340003L642.4603248333075 331.68445685732155L642.4603248333075 410.1219485457858Q642.4603248333075 417.18444779741645 645.3144911975357 419.0594475987344Q648.1478242306384 420.9344474000522 653.2519903564481 420.9344474000522L653.2519903564481 420.9344474000522L653.7103236412147 420.9344474000522L653.7103236412147 427.22611340003ZM797.1061417797804 428.7261132410843L797.1061417797804 428.7261132410843Q780.7519768460635 428.7261132410843 771.5228111573543 417.9344477179436Q762.314478799771 407.12194886367723 762.314478799771 387.6219509299714L762.314478799771 387.6219509299714Q762.314478799771 366.6219531552112 771.0019778792106 355.9761209499508Q779.7103102897757 345.33028874469045 795.6061419387262 345.33028874469045L795.6061419387262 345.33028874469045Q810.1478070645024 345.33028874469045 818.4811395148041 354.33028779101625Q826.8144719651058 363.33028683734204 826.8144719651058 381.1844516121134L826.8144719651058 381.1844516121134L826.8144719651058 388.08028421473796L776.8561439255474 388.08028421473796Q777.147810561308 404.434449148455 782.7728099652616 411.8511150292234Q788.3978093692152 419.2677809099919 799.2103082234815 419.2677809099919L799.2103082234815 419.2677809099919Q807.0019740645137 419.2677809099919 812.4811401505871 416.05944791662574Q817.9603062366604 412.8302815921339 820.6478059518826 408.7677820226118L820.6478059518826 408.7677820226118Q821.7103058392961 409.2261153073784 822.6061390777035 410.58028183055245Q823.5019723161109 411.9344483537264 823.5019723161109 413.8719481484216L823.5019723161109 413.8719481484216Q823.5019723161109 416.8719478305302 820.6478059518826 420.33028079740535Q817.8144729187801 423.76778043315477 811.9603068724431 426.24694683711954Q806.1061408261062 428.7261132410843 797.1061417797804 428.7261132410843ZM777.147810561308 379.9761184068196L811.6478069055569 379.9761184068196Q811.6478069055569 367.9761196783852 807.9811406274241 360.705287115497Q804.3144743492913 353.4344545526088 795.3144753029655 353.4344545526088L795.3144753029655 353.4344545526088Q787.064476177167 353.4344545526088 782.481143329501 360.24695383073043Q777.8978104818351 367.0802864399778 777.147810561308 379.9761184068196L777.147810561308 379.9761184068196ZM878.8561331172397 427.22611340003L838.5019707266539 427.22611340003L838.5019707266539 420.9344474000522L839.7103039319477 420.9344474000522Q844.8144700577574 420.9344474000522 848.397803011387 419.0594475987344Q852.0019692961425 417.18444779741645 852.0019692961425 410.1219485457858L852.0019692961425 410.1219485457858L852.0019692961425 363.33028683734204Q852.0019692961425 356.726120870478 848.4811363358901 354.93445439366315Q844.9603033756376 353.1219545857225 840.0019705677082 353.1219545857225L840.0019705677082 353.1219545857225L839.2519706471811 353.1219545857225L839.2519706471811 346.83028858574477L863.5644680709362 346.83028858574477L865.5019678656313 358.97612063205946L866.2519677861584 358.97612063205946Q869.3978007861473 353.2677879036028 872.9394670775255 350.3511215459972Q876.460300037778 347.43445518839167 880.6477995940546 346.3719553009782Q884.8561324814568 345.33028874469045 889.6477986403803 345.33028874469045L889.6477986403803 345.33028874469045Q901.5019640509344 345.33028874469045 908.1894633423016 352.3094546718181Q914.8561293025429 359.26778726782 914.8561293025429 374.7261189631296L914.8561293025429 374.7261189631296L914.8561293025429 410.1219485457858Q914.8561293025429 417.18444779741645 917.9394623091544 419.0594475987344Q921.0019619846402 420.9344474000522 926.10612811045 420.9344474000522L926.10612811045 420.9344474000522L926.8561280309772 420.9344474000522L926.8561280309772 427.22611340003L900.7519641304073 427.22611340003L900.7519641304073 375.47611888365674Q900.7519641304073 365.7261199168038 897.0852978522745 360.33028715523346Q893.3977982430159 354.93445439366315 884.25196587881 354.93445439366315L884.25196587881 354.93445439366315Q877.5019665940657 354.93445439366315 873.5228003490466 358.30945403603533Q869.5644674351533 361.68445367840746 867.8353009517158 367.2261197578581Q866.1061344682781 372.7677858373087 866.1061344682781 379.2261184862925L866.1061344682781 379.2261184862925L866.1061344682781 410.871948466313Q866.1061344682781 417.47611443317703 869.6269674285306 419.20528091661464Q873.147800388783 420.9344474000522 878.1061331967124 420.9344474000522L878.1061331967124 420.9344474000522L878.8561331172397 420.9344474000522L878.8561331172397 427.22611340003ZM967.0644571036827 428.7261132410843L967.0644571036827 428.7261132410843Q955.6477916467694 428.7261132410843 950.4811255275823 423.5594471218972Q945.3144594083954 418.37194767158445 945.3144594083954 405.47611570474265L945.3144594083954 405.47611570474265L945.3144594083954 355.371954347304L933.8977939514821 355.371954347304L933.8977939514821 349.3719549830868Q936.6061269978301 349.3719549830868 939.8977933156992 348.24695510229606Q943.2102929646942 347.12195522150535 945.6061260441559 344.58028882416335L945.6061260441559 344.58028882416335Q948.1477924414979 341.8719557778153 949.8144589315582 337.97612285729923Q951.4602920904928 334.08028993678323 952.5019586467805 328.3719572083266L952.5019586467805 328.3719572083266L959.3977912494051 328.3719572083266L959.3977912494051 346.83028858574477L979.064455832117 346.83028858574477L979.064455832117 355.371954347304L959.3977912494051 355.371954347304L959.3977912494051 405.93444898950924Q959.3977912494051 413.58028151266103 962.5644575805198 417.18444779741645Q965.7102905805086 420.7677807510462 970.8144567063184 420.7677807510462L970.8144567063184 420.7677807510462Q973.5019564215407 420.7677807510462 975.7519561831222 420.4761141152856Q978.0019559447036 420.1844474795251 980.3977890241653 419.7261141947585L980.3977890241653 419.7261141947585L980.3977890241653 426.33028016162257Q978.4602892294702 427.22611340003 974.5644563089542 427.9761133205571Q970.6477900573124 428.7261132410843 967.0644571036827 428.7261132410843ZM1014.6061187326535 428.7261132410843L1014.6061187326535 428.7261132410843Q1004.5644531300401 428.7261132410843 997.9602871631761 422.87194719474735Q991.356121196312 417.01778114841045 991.356121196312 404.7261157842155L991.356121196312 404.7261157842155Q991.356121196312 392.7261170557811 999.8352869644938 387.0177843273245Q1008.3144527326759 381.33028492999364 1025.5644509048002 380.72611832734674L1025.5644509048002 380.72611832734674L1038.0019495868755 380.26778504258016L1038.0019495868755 371.26778599625436Q1038.0019495868755 365.87195323468404 1037.106116348468 361.74695367178475Q1036.2102831100606 357.6219541088854 1033.2102834279522 355.2261210294237Q1030.2102837458433 352.830287949962 1024.0644510637458 352.830287949962L1024.0644510637458 352.830287949962Q1018.3561183352894 352.830287949962 1015.3561186531807 354.93445439366315Q1012.3561189710722 357.01778750623856 1011.3769524081616 360.705287115497Q1010.3977858452513 364.3719533936298 1010.3977858452513 369.18445288367894L1010.3977858452513 369.18445288367894Q1004.1061198452736 369.18445288367894 1000.8769535207815 366.9969531154748Q997.6477871962896 364.83028667839636 997.6477871962896 359.72612055258656L997.6477871962896 359.72612055258656Q997.6477871962896 354.47612110889656 1001.3352868055482 351.33028810890767Q1005.0019530836809 348.1844551089188 1011.1477857657784 346.74695526124174Q1017.3144517790016 345.33028874469045 1024.6477843352673 345.33028874469045L1024.6477843352673 345.33028874469045Q1038.460282871642 345.33028874469045 1045.2727821497638 351.1844547910274Q1052.1061147590112 357.01778750623856 1052.1061147590112 371.26778599625436L1052.1061147590112 371.26778599625436L1052.1061147590112 410.1219485457858Q1052.1061147590112 416.43444787688935 1054.2102812027124 418.6844476384708Q1056.3144476464136 420.9344474000522 1061.3977804410974 420.9344474000522L1061.3977804410974 420.9344474000522L1061.856113725864 420.9344474000522L1061.856113725864 427.22611340003L1041.6061158716311 427.22611340003L1039.2102827921692 414.3302814331882L1038.0019495868755 414.3302814331882Q1034.8561165868864 418.51778098946477 1031.856116904778 421.74694731395664Q1028.8561172226696 424.9761136384485 1024.8769509776503 426.8511134397664Q1020.8977847326313 428.7261132410843 1014.6061187326535 428.7261132410843ZM1018.0644516995287 419.43444755899793L1018.0644516995287 419.43444755899793Q1027.210284063735 419.43444755899793 1032.606116825305 413.8094481550443Q1038.0019495868755 408.1844487510907 1038.0019495868755 398.580283102118L1038.0019495868755 398.580283102118L1038.0019495868755 386.4344510558034L1028.3977839379027 386.8719510094442Q1015.6477852889412 387.47611761209106 1010.7727858055149 392.059450459757Q1005.8977863220883 396.6219499762972 1005.8977863220883 405.47611570474265L1005.8977863220883 405.47611570474265Q1005.8977863220883 419.43444755899793 1018.0644516995287 419.43444755899793ZM1112.85610832171 427.22611340003L1070.2519461695429 427.22611340003L1070.2519461695429 420.9344474000522L1072.2102792953638 420.9344474000522Q1075.6477789311132 420.9344474000522 1078.4394453019643 420.1844474795251Q1081.2102783416894 419.43444755899793 1082.8561115006241 417.1011144729135Q1084.5019446595588 414.767781386829 1084.5019446595588 410.1219485457858L1084.5019446595588 410.1219485457858L1084.5019446595588 329.72612373150065Q1084.5019446595588 325.22612420833775 1082.772778176121 323.0594577712593Q1081.0644450238092 320.8719580030551 1078.272778652958 320.205291407031Q1075.501945613233 319.5177914798811 1072.2102792953638 319.5177914798811L1072.2102792953638 319.5177914798811L1070.2519461695429 319.5177914798811L1070.2519461695429 313.2261254799034L1098.606109831694 313.2261254799034L1098.606109831694 410.1219485457858Q1098.606109831694 414.767781386829 1100.2519429906288 417.1011144729135Q1101.8977761495635 419.43444755899793 1104.7519425137916 420.1844474795251Q1107.6061088780202 420.9344474000522 1110.8977751958892 420.9344474000522L1110.8977751958892 420.9344474000522L1112.85610832171 420.9344474000522L1112.85610832171 427.22611340003ZM1151.3977709043552 427.22611340003L1114.814441447531 427.22611340003L1114.814441447531 420.9344474000522L1117.6477744806334 420.9344474000522Q1122.001940685916 420.9344474000522 1124.1894404541204 418.6844476384708Q1126.3561068911986 416.43444787688935 1129.064439937547 409.2261153073784L1129.064439937547 409.2261153073784L1162.3561030765018 320.121958082528L1174.0644351691758 320.121958082528L1207.9602649107778 412.97611491001413Q1209.6060980697123 417.62194775105735 1211.9394311557967 419.2677809099919Q1214.2519309107556 420.9344474000522 1218.606097116038 420.9344474000522L1218.606097116038 420.9344474000522L1220.5644302418589 420.9344474000522L1220.5644302418589 427.22611340003L1179.3144346128659 427.22611340003L1179.3144346128659 420.9344474000522L1182.7519342486153 420.9344474000522Q1187.251933771778 420.9344474000522 1189.5019335333595 419.20528091661464Q1191.751933294941 417.47611443317703 1191.751933294941 413.7261148305413L1191.751933294941 413.7261148305413Q1191.751933294941 412.51778162524755 1191.4602666591804 411.1844484331993Q1191.147766692294 409.8302819100253 1190.564433420773 408.1844487510907L1190.564433420773 408.1844487510907L1184.564434056556 391.3719505326071L1145.1061049043774 391.3719505326071L1139.3977721759209 407.12194886367723Q1138.8144389043996 408.9344486716179 1138.439438944136 410.6427818239297Q1138.0644389838726 412.3719483073673 1138.0644389838726 413.58028151266103L1138.0644389838726 413.58028151266103Q1138.0644389838726 417.33028111529677 1140.5227720567116 419.1219475921116Q1143.0019384606762 420.9344474000522 1147.960271268606 420.9344474000522L1147.960271268606 420.9344474000522L1151.3977709043552 420.9344474000522L1151.3977709043552 427.22611340003ZM1158.1477701890994 356.2677875857114L1147.960271268606 383.87195132733564L1181.8561010102078 383.87195132733564L1172.5644353281214 357.6219541088854Q1170.147768917534 351.01778814202135 1168.2102691228388 345.1844554268102Q1166.2519359970179 339.3302893804733 1165.0644361228499 333.93445661890297L1165.0644361228499 333.93445661890297Q1164.0019362354365 339.3302893804733 1162.3561030765018 344.267788857277Q1160.7102699175675 349.2261216652065 1158.1477701890994 356.2677875857114L1158.1477701890994 356.2677875857114ZM1263.606092347667 463.2261095853331L1223.2519299570813 463.2261095853331L1223.2519299570813 456.9344435853554L1224.4602631623748 456.9344435853554Q1227.8977627981244 456.9344435853554 1230.6894291689755 456.1844436648282Q1233.460262208701 455.43444374430106 1235.1060953676356 453.1011106582166Q1236.7519285265698 450.76777757213216 1236.7519285265698 446.12194473108894L1236.7519285265698 446.12194473108894L1236.7519285265698 363.33028683734204Q1236.7519285265698 356.726120870478 1233.0852622484372 354.93445439366315Q1229.3977626391788 353.1219545857225 1224.4602631623748 353.1219545857225L1224.4602631623748 353.1219545857225L1222.501930036554 353.1219545857225L1222.501930036554 346.83028858574477L1248.7519272550044 346.83028858574477L1250.2519270960588 360.33028715523346L1250.8560936987055 360.33028715523346Q1254.3144266655809 353.4344545526088 1259.710259427151 349.3719549830868Q1265.1060921887215 345.33028874469045 1273.8144245992867 345.33028874469045L1273.8144245992867 345.33028874469045Q1288.6477563608237 345.33028874469045 1296.5227555263587 355.3094543539267Q1304.3977546918936 365.2677866320372 1304.3977546918936 386.8719510094442L1304.3977546918936 386.8719510094442Q1304.3977546918936 408.62194870473155 1296.5227555263587 418.6844476384708Q1288.6477563608237 428.7261132410843 1273.8144245992867 428.7261132410843L1273.8144245992867 428.7261132410843Q1265.1060921887215 428.7261132410843 1259.6269261026478 425.05944696295154Q1254.1477600165745 421.3719473536931 1250.8560936987055 415.5177813073562L1250.8560936987055 415.5177813073562L1250.2519270960588 415.5177813073562Q1250.564427062945 418.37194767158445 1250.626927056322 421.6011139960764Q1250.7102603808253 424.83028032056825 1250.7727603742023 427.68444668479657Q1250.8560936987055 430.51777971789915 1250.8560936987055 432.47611284372005L1250.8560936987055 432.47611284372005L1250.8560936987055 446.87194465161616Q1250.8560936987055 451.22611085689874 1252.585260182143 453.3927772939772Q1254.3144266655809 455.5802770621813 1257.0852597053058 456.2469436582055Q1259.8560927450312 456.9344435853554 1263.1477590629006 456.9344435853554L1263.1477590629006 456.9344435853554L1263.606092347667 456.9344435853554L1263.606092347667 463.2261095853331ZM1271.3977581886993 419.1219475921116L1271.3977581886993 419.1219475921116Q1281.314423804558 419.1219475921116 1285.5852566853378 410.8094484729357Q1289.8560895661171 402.4761160226341 1289.8560895661171 386.72611769156396L1289.8560895661171 386.72611769156396Q1289.8560895661171 370.68445272473326 1285.5852566853378 362.8094535591982Q1281.314423804558 354.93445439366315 1271.251924870819 354.93445439366315L1271.251924870819 354.93445439366315Q1259.5644261092707 354.93445439366315 1255.2102599039881 362.8094535591982Q1250.8560936987055 370.68445272473326 1250.8560936987055 386.8719510094442L1250.8560936987055 386.8719510094442Q1250.8560936987055 402.4761160226341 1255.2102599039881 410.8094484729357Q1259.5644261092707 419.1219475921116 1271.3977581886993 419.1219475921116ZM1355.710249254626 463.2261095853331L1315.3560868640402 463.2261095853331L1315.3560868640402 456.9344435853554L1316.5644200693341 456.9344435853554Q1320.0019197050833 456.9344435853554 1322.7727527448087 456.1844436648282Q1325.5644191156598 455.43444374430106 1327.2102522745945 453.1011106582166Q1328.8560854335292 450.76777757213216 1328.8560854335292 446.12194473108894L1328.8560854335292 446.12194473108894L1328.8560854335292 363.33028683734204Q1328.8560854335292 356.726120870478 1325.189419155396 354.93445439366315Q1321.5019195461377 353.1219545857225 1316.5644200693341 353.1219545857225L1316.5644200693341 353.1219545857225L1314.6060869435132 353.1219545857225L1314.6060869435132 346.83028858574477L1340.8560841619633 346.83028858574477L1342.3560840030177 360.33028715523346L1342.9602506056644 360.33028715523346Q1346.397750241414 353.4344545526088 1351.8144163341099 349.3719549830868Q1357.2102490956804 345.33028874469045 1365.89774817512 345.33028874469045L1365.89774817512 345.33028874469045Q1380.7519132677826 345.33028874469045 1388.6269124333176 355.3094543539267Q1396.501911598853 365.2677866320372 1396.501911598853 386.8719510094442L1396.501911598853 386.8719510094442Q1396.501911598853 408.62194870473155 1388.6269124333176 418.6844476384708Q1380.7519132677826 428.7261132410843 1365.89774817512 428.7261132410843L1365.89774817512 428.7261132410843Q1357.2102490956804 428.7261132410843 1351.7310830096071 425.05944696295154Q1346.2519169235338 421.3719473536931 1342.9602506056644 415.5177813073562L1342.9602506056644 415.5177813073562L1342.3560840030177 415.5177813073562Q1342.6477506387782 418.37194767158445 1342.7310839632814 421.6011139960764Q1342.8144172877842 424.83028032056825 1342.8769172811617 427.68444668479657Q1342.9602506056644 430.51777971789915 1342.9602506056644 432.47611284372005L1342.9602506056644 432.47611284372005L1342.9602506056644 446.87194465161616Q1342.9602506056644 451.22611085689874 1344.6894170891023 453.3927772939772Q1346.397750241414 455.5802770621813 1349.1894166122652 456.2469436582055Q1351.9602496519901 456.9344435853554 1355.2519159698595 456.9344435853554L1355.2519159698595 456.9344435853554L1355.710249254626 456.9344435853554L1355.710249254626 463.2261095853331ZM1363.5019150956582 419.1219475921116L1363.5019150956582 419.1219475921116Q1373.3977473803911 419.1219475921116 1377.6894135922967 410.8094484729357Q1381.9602464730765 402.4761160226341 1381.9602464730765 386.72611769156396L1381.9602464730765 386.72611769156396Q1381.9602464730765 370.68445272473326 1377.6894135922967 362.8094535591982Q1373.3977473803911 354.93445439366315 1363.356081777778 354.93445439366315L1363.356081777778 354.93445439366315Q1351.647749685104 354.93445439366315 1347.314416810947 362.8094535591982Q1342.9602506056644 370.68445272473326 1342.9602506056644 386.8719510094442L1342.9602506056644 386.8719510094442Q1342.9602506056644 402.4761160226341 1347.314416810947 410.8094484729357Q1351.647749685104 419.1219475921116 1363.5019150956582 419.1219475921116Z " fill="#fcedda" transform="matrix(0.627078076425753,0,0,0.6270780764257528,-0.7157154098438911,56.551915997430555)"/></g></svg>